<svg width="311" height="29" viewBox="0 0 311 29" fill="none" xmlns="http://www.w3.org/2000/svg">
<path d="M276.006 0.218711C276.15 0.362733 276.295 0.570148 276.295 0.778794C276.296 1.13946 275.873 1.62877 275.09 2.43258C271.825 5.57581 270.183 9.425 270.194 14.0675C270.207 19.2037 271.934 23.3286 275.29 26.5254C275.996 27.1562 276.286 27.6523 276.287 28.077C276.287 28.285 276.144 28.5017 276 28.7103C275.865 28.855 275.576 29.0002 275.368 29.0002C274.591 29.0021 273.504 28.0838 272.085 26.297C269.321 22.9101 268.072 19.1698 268.002 14.0725C267.937 8.97262 269.536 5.51427 272.666 1.94389C273.792 0.668009 274.731 0.00514115 275.372 0.0039102C275.58 0.00329472 275.797 0.0746899 276.006 0.218711Z" fill="#1B1B32"/>
<path d="M293.152 14.9868C291.925 14.6735 296.959 8.72676 288.013 1.60693C288.013 1.60693 289.187 5.3361 283.268 13.658C277.347 21.9767 285.901 26.9325 285.901 26.9325C285.901 26.9325 281.886 24.7931 286.554 17.176C287.389 15.7943 288.482 14.543 289.839 11.7266C289.839 11.7266 291.04 13.4222 290.413 17.0985C289.475 22.6537 294.481 21.064 294.558 21.1415C296.307 23.2003 293.11 26.8187 292.916 26.9325C292.722 27.0433 302.045 21.3243 295.421 12.7175C294.968 13.1711 294.378 15.3007 293.152 14.9868Z" fill="#1B1B32"/>
<path d="M302.99 0.214805C302.845 0.358826 302.7 0.566242 302.7 0.774888C302.699 1.13556 303.123 1.62486 303.905 2.42867C307.17 5.57129 308.812 9.42109 308.801 14.0636C308.789 19.1998 307.062 23.3247 303.705 26.5215C302.999 27.1523 302.709 27.6484 302.708 28.0731C302.708 28.2811 302.851 28.4978 302.995 28.7064C303.131 28.851 303.419 28.9957 303.627 28.9963C304.404 28.9981 305.491 28.0799 306.91 26.2931C309.674 22.9062 310.923 19.1659 310.993 14.0686C311.058 8.96872 309.459 5.51036 306.329 1.93998C305.203 0.664102 304.264 0.0012349 303.623 3.94531e-06C303.415 -0.000611531 303.198 0.0707837 302.99 0.214805Z" fill="#1B1B32"/>
<path d="M16.1591 11H14.0455C13.9205 10.392 13.7017 9.85795 13.3892 9.39773C13.0824 8.9375 12.7074 8.55114 12.2642 8.23864C11.8267 7.92045 11.3409 7.68182 10.8068 7.52273C10.2727 7.36364 9.71591 7.28409 9.13636 7.28409C8.07955 7.28409 7.12216 7.55114 6.2642 8.08523C5.41193 8.61932 4.73295 9.40625 4.22727 10.446C3.72727 11.4858 3.47727 12.7614 3.47727 14.2727C3.47727 15.7841 3.72727 17.0597 4.22727 18.0994C4.73295 19.1392 5.41193 19.9261 6.2642 20.4602C7.12216 20.9943 8.07955 21.2614 9.13636 21.2614C9.71591 21.2614 10.2727 21.1818 10.8068 21.0227C11.3409 20.8636 11.8267 20.6278 12.2642 20.3153C12.7074 19.9972 13.0824 19.608 13.3892 19.1477C13.7017 18.6818 13.9205 18.1477 14.0455 17.5455H16.1591C16 18.4375 15.7102 19.2358 15.2898 19.9403C14.8693 20.6449 14.3466 21.2443 13.7216 21.7386C13.0966 22.2273 12.3949 22.5994 11.6165 22.8551C10.8438 23.1108 10.017 23.2386 9.13636 23.2386C7.64773 23.2386 6.32386 22.875 5.16477 22.1477C4.00568 21.4205 3.09375 20.3864 2.42898 19.0455C1.7642 17.7045 1.43182 16.1136 1.43182 14.2727C1.43182 12.4318 1.7642 10.8409 2.42898 9.5C3.09375 8.15909 4.00568 7.125 5.16477 6.39773C6.32386 5.67045 7.64773 5.30682 9.13636 5.30682C10.017 5.30682 10.8438 5.43466 11.6165 5.69034C12.3949 5.94602 13.0966 6.32102 13.7216 6.81534C14.3466 7.30398 14.8693 7.90057 15.2898 8.60511C15.7102 9.30398 16 10.1023 16.1591 11ZM24.62 23.2727C23.4382 23.2727 22.4013 22.9915 21.5092 22.429C20.6229 21.8665 19.9297 21.0795 19.4297 20.0682C18.9354 19.0568 18.6882 17.875 18.6882 16.5227C18.6882 15.1591 18.9354 13.9687 19.4297 12.9517C19.9297 11.9347 20.6229 11.1449 21.5092 10.5824C22.4013 10.0199 23.4382 9.73864 24.62 9.73864C25.8018 9.73864 26.8359 10.0199 27.7223 10.5824C28.6143 11.1449 29.3075 11.9347 29.8018 12.9517C30.3018 13.9687 30.5518 15.1591 30.5518 16.5227C30.5518 17.875 30.3018 19.0568 29.8018 20.0682C29.3075 21.0795 28.6143 21.8665 27.7223 22.429C26.8359 22.9915 25.8018 23.2727 24.62 23.2727ZM24.62 21.4659C25.5178 21.4659 26.2564 21.2358 26.8359 20.7756C27.4155 20.3153 27.8445 19.7102 28.1229 18.9602C28.4013 18.2102 28.5405 17.3977 28.5405 16.5227C28.5405 15.6477 28.4013 14.8324 28.1229 14.0767C27.8445 13.321 27.4155 12.7102 26.8359 12.2443C26.2564 11.7784 25.5178 11.5455 24.62 11.5455C23.7223 11.5455 22.9837 11.7784 22.4041 12.2443C21.8246 12.7102 21.3956 13.321 21.1172 14.0767C20.8388 14.8324 20.6996 15.6477 20.6996 16.5227C20.6996 17.3977 20.8388 18.2102 21.1172 18.9602C21.3956 19.7102 21.8246 20.3153 22.4041 20.7756C22.9837 21.2358 23.7223 21.4659 24.62 21.4659ZM38.5653 23.2727C37.4744 23.2727 36.5114 22.9972 35.6761 22.446C34.8409 21.8892 34.1875 21.1051 33.7159 20.0938C33.2443 19.0767 33.0085 17.875 33.0085 16.4886C33.0085 15.1136 33.2443 13.9205 33.7159 12.9091C34.1875 11.8977 34.8438 11.1165 35.6847 10.5653C36.5256 10.0142 37.4972 9.73864 38.5994 9.73864C39.4517 9.73864 40.125 9.88068 40.6193 10.1648C41.1193 10.4432 41.5 10.7614 41.7614 11.1193C42.0284 11.4716 42.2358 11.7614 42.3835 11.9886H42.554V5.54545H44.5653V23H42.6222V20.9886H42.3835C42.2358 21.2273 42.0256 21.5284 41.7528 21.892C41.4801 22.25 41.0909 22.571 40.5852 22.8551C40.0795 23.1335 39.4063 23.2727 38.5653 23.2727ZM38.8381 21.4659C39.6449 21.4659 40.3267 21.2557 40.8835 20.8352C41.4403 20.4091 41.8636 19.821 42.1534 19.071C42.4432 18.3153 42.5881 17.4432 42.5881 16.4545C42.5881 15.4773 42.446 14.6222 42.1619 13.8892C41.8778 13.1506 41.4574 12.5767 40.9006 12.1676C40.3438 11.7528 39.6563 11.5455 38.8381 11.5455C37.9858 11.5455 37.2756 11.7642 36.7074 12.2017C36.1449 12.6335 35.7216 13.2216 35.4375 13.9659C35.1591 14.7045 35.0199 15.5341 35.0199 16.4545C35.0199 17.3864 35.1619 18.233 35.446 18.9943C35.7358 19.75 36.1619 20.3523 36.7244 20.8011C37.2926 21.2443 37.9972 21.4659 38.8381 21.4659ZM48.5284 23V9.90909H50.5398V23H48.5284ZM49.5511 7.72727C49.1591 7.72727 48.821 7.59375 48.5369 7.3267C48.2585 7.05966 48.1193 6.73864 48.1193 6.36364C48.1193 5.98864 48.2585 5.66761 48.5369 5.40057C48.821 5.13352 49.1591 5 49.5511 5C49.9432 5 50.2784 5.13352 50.5568 5.40057C50.8409 5.66761 50.983 5.98864 50.983 6.36364C50.983 6.73864 50.8409 7.05966 50.5568 7.3267C50.2784 7.59375 49.9432 7.72727 49.5511 7.72727ZM56.2351 15.125V23H54.2237V9.90909H56.1669V11.9545H56.3374C56.6442 11.2898 57.1101 10.7557 57.7351 10.3523C58.3601 9.94318 59.1669 9.73864 60.1555 9.73864C61.0419 9.73864 61.8175 9.92045 62.4822 10.2841C63.147 10.642 63.6641 11.1875 64.0334 11.9205C64.4027 12.6477 64.5874 13.5682 64.5874 14.6818V23H62.576V14.8182C62.576 13.7898 62.3089 12.9886 61.7749 12.4148C61.2408 11.8352 60.5078 11.5455 59.576 11.5455C58.9339 11.5455 58.3601 11.6847 57.8544 11.9631C57.3544 12.2415 56.9595 12.6477 56.6697 13.1818C56.38 13.7159 56.2351 14.3636 56.2351 15.125ZM73.5469 28.1818C72.5753 28.1818 71.7401 28.0568 71.0412 27.8068C70.3423 27.5625 69.7599 27.2386 69.294 26.8352C68.8338 26.4375 68.4673 26.0114 68.1946 25.5568L69.7969 24.4318C69.9787 24.6705 70.2088 24.9432 70.4872 25.25C70.7656 25.5625 71.1463 25.8324 71.6293 26.0597C72.1179 26.2926 72.7571 26.4091 73.5469 26.4091C74.6037 26.4091 75.4759 26.1534 76.1634 25.642C76.8509 25.1307 77.1946 24.3295 77.1946 23.2386V20.5795H77.0241C76.8764 20.8182 76.6662 21.1136 76.3935 21.4659C76.1264 21.8125 75.7401 22.1222 75.2344 22.3949C74.7344 22.6619 74.0582 22.7955 73.206 22.7955C72.1491 22.7955 71.2003 22.5455 70.3594 22.0455C69.5241 21.5455 68.8622 20.8182 68.3736 19.8636C67.8906 18.9091 67.6491 17.75 67.6491 16.3864C67.6491 15.0455 67.8849 13.8778 68.3565 12.8835C68.8281 11.8835 69.4844 11.1108 70.3253 10.5653C71.1662 10.0142 72.1378 9.73864 73.2401 9.73864C74.0923 9.73864 74.7685 9.88068 75.2685 10.1648C75.7741 10.4432 76.1605 10.7614 76.4276 11.1193C76.7003 11.4716 76.9105 11.7614 77.0582 11.9886H77.2628V9.90909H79.206V23.375C79.206 24.5 78.9503 25.4148 78.4389 26.1193C77.9332 26.8295 77.2514 27.3494 76.3935 27.679C75.5412 28.0142 74.5923 28.1818 73.5469 28.1818ZM73.4787 20.9886C74.2855 20.9886 74.9673 20.804 75.5241 20.4347C76.081 20.0653 76.5043 19.5341 76.794 18.8409C77.0838 18.1477 77.2287 17.3182 77.2287 16.3523C77.2287 15.4091 77.0866 14.5767 76.8026 13.8551C76.5185 13.1335 76.098 12.5682 75.5412 12.1591C74.9844 11.75 74.2969 11.5455 73.4787 11.5455C72.6264 11.5455 71.9162 11.7614 71.348 12.1932C70.7855 12.625 70.3622 13.2045 70.0781 13.9318C69.7997 14.6591 69.6605 15.4659 69.6605 16.3523C69.6605 17.2614 69.8026 18.0653 70.0866 18.7642C70.3764 19.4574 70.8026 20.0028 71.3651 20.4006C71.9332 20.7926 72.6378 20.9886 73.4787 20.9886ZM92.0241 5.54545V23H89.9105V5.54545H92.0241ZM98.0007 15.125V23H95.9893V9.90909H97.9325V11.9545H98.103C98.4098 11.2898 98.8757 10.7557 99.5007 10.3523C100.126 9.94318 100.933 9.73864 101.921 9.73864C102.808 9.73864 103.583 9.92045 104.248 10.2841C104.913 10.642 105.43 11.1875 105.799 11.9205C106.168 12.6477 106.353 13.5682 106.353 14.6818V23H104.342V14.8182C104.342 13.7898 104.075 12.9886 103.54 12.4148C103.006 11.8352 102.273 11.5455 101.342 11.5455C100.7 11.5455 100.126 11.6847 99.62 11.9631C99.12 12.2415 98.7251 12.6477 98.4354 13.1818C98.1456 13.7159 98.0007 14.3636 98.0007 15.125ZM115.722 9.90909V11.6136H108.938V9.90909H115.722ZM110.915 6.77273H112.926V19.25C112.926 19.8182 113.009 20.2443 113.173 20.5284C113.344 20.8068 113.56 20.9943 113.821 21.0909C114.088 21.1818 114.369 21.2273 114.665 21.2273C114.886 21.2273 115.068 21.2159 115.21 21.1932C115.352 21.1648 115.466 21.142 115.551 21.125L115.96 22.9318C115.824 22.983 115.634 23.0341 115.389 23.0852C115.145 23.142 114.835 23.1705 114.46 23.1705C113.892 23.1705 113.335 23.0483 112.79 22.804C112.25 22.5597 111.801 22.1875 111.443 21.6875C111.091 21.1875 110.915 20.5568 110.915 19.7955V6.77273ZM124.095 23.2727C122.834 23.2727 121.746 22.9943 120.831 22.4375C119.922 21.875 119.22 21.0909 118.726 20.0852C118.237 19.0739 117.993 17.8977 117.993 16.5568C117.993 15.2159 118.237 14.0341 118.726 13.0114C119.22 11.983 119.908 11.1818 120.788 10.608C121.675 10.0284 122.709 9.73864 123.891 9.73864C124.572 9.73864 125.246 9.85227 125.911 10.0795C126.575 10.3068 127.18 10.6761 127.726 11.1875C128.271 11.6932 128.706 12.3636 129.03 13.1989C129.354 14.0341 129.516 15.0625 129.516 16.2841V17.1364H119.425V15.3977H127.47C127.47 14.6591 127.322 14 127.027 13.4205C126.737 12.8409 126.322 12.3835 125.783 12.0483C125.249 11.7131 124.618 11.5455 123.891 11.5455C123.089 11.5455 122.396 11.7443 121.811 12.142C121.232 12.5341 120.786 13.0455 120.473 13.6761C120.161 14.3068 120.004 14.983 120.004 15.7045V16.8636C120.004 17.8523 120.175 18.6903 120.516 19.3778C120.862 20.0597 121.342 20.5795 121.956 20.9375C122.57 21.2898 123.283 21.4659 124.095 21.4659C124.624 21.4659 125.101 21.392 125.527 21.2443C125.959 21.0909 126.331 20.8636 126.643 20.5625C126.956 20.2557 127.197 19.875 127.368 19.4205L129.311 19.9659C129.107 20.625 128.763 21.2045 128.28 21.7045C127.797 22.1989 127.2 22.5852 126.49 22.8636C125.78 23.1364 124.982 23.2727 124.095 23.2727ZM132.575 23V9.90909H134.518V11.8864H134.655C134.893 11.2386 135.325 10.7131 135.95 10.3097C136.575 9.90625 137.28 9.70454 138.064 9.70454C138.212 9.70454 138.396 9.70739 138.618 9.71307C138.839 9.71875 139.007 9.72727 139.121 9.73864V11.7841C139.053 11.767 138.896 11.7415 138.652 11.7074C138.413 11.6676 138.161 11.6477 137.893 11.6477C137.257 11.6477 136.689 11.7812 136.189 12.0483C135.695 12.3097 135.303 12.6733 135.013 13.1392C134.729 13.5994 134.587 14.125 134.587 14.7159V23H132.575ZM152.608 9.90909L147.767 23H145.722L140.881 9.90909H143.062L146.676 20.3409H146.812L150.426 9.90909H152.608ZM155.263 23V9.90909H157.274V23H155.263ZM156.286 7.72727C155.893 7.72727 155.555 7.59375 155.271 7.3267C154.993 7.05966 154.854 6.73864 154.854 6.36364C154.854 5.98864 154.993 5.66761 155.271 5.40057C155.555 5.13352 155.893 5 156.286 5C156.678 5 157.013 5.13352 157.291 5.40057C157.575 5.66761 157.717 5.98864 157.717 6.36364C157.717 6.73864 157.575 7.05966 157.291 7.3267C157.013 7.59375 156.678 7.72727 156.286 7.72727ZM166.447 23.2727C165.185 23.2727 164.097 22.9943 163.183 22.4375C162.273 21.875 161.572 21.0909 161.077 20.0852C160.589 19.0739 160.344 17.8977 160.344 16.5568C160.344 15.2159 160.589 14.0341 161.077 13.0114C161.572 11.983 162.259 11.1818 163.14 10.608C164.026 10.0284 165.06 9.73864 166.242 9.73864C166.924 9.73864 167.597 9.85227 168.262 10.0795C168.927 10.3068 169.532 10.6761 170.077 11.1875C170.623 11.6932 171.058 12.3636 171.381 13.1989C171.705 14.0341 171.867 15.0625 171.867 16.2841V17.1364H161.776V15.3977H169.822C169.822 14.6591 169.674 14 169.379 13.4205C169.089 12.8409 168.674 12.3835 168.134 12.0483C167.6 11.7131 166.969 11.5455 166.242 11.5455C165.441 11.5455 164.748 11.7443 164.163 12.142C163.583 12.5341 163.137 13.0455 162.825 13.6761C162.512 14.3068 162.356 14.983 162.356 15.7045V16.8636C162.356 17.8523 162.526 18.6903 162.867 19.3778C163.214 20.0597 163.694 20.5795 164.308 20.9375C164.921 21.2898 165.634 21.4659 166.447 21.4659C166.975 21.4659 167.452 21.392 167.879 21.2443C168.31 21.0909 168.683 20.8636 168.995 20.5625C169.308 20.2557 169.549 19.875 169.719 19.4205L171.663 19.9659C171.458 20.625 171.114 21.2045 170.631 21.7045C170.148 22.1989 169.552 22.5852 168.842 22.8636C168.131 23.1364 167.333 23.2727 166.447 23.2727ZM177.893 23L173.904 9.90909H176.018L178.847 19.9318H178.984L181.779 9.90909H183.927L186.688 19.8977H186.825L189.654 9.90909H191.768L187.779 23H185.802L182.938 12.9432H182.734L179.87 23H177.893ZM201.45 23V5.54545H207.347C208.717 5.54545 209.836 5.79261 210.705 6.28693C211.58 6.77557 212.228 7.4375 212.648 8.27273C213.069 9.10795 213.279 10.0398 213.279 11.0682C213.279 12.0966 213.069 13.0312 212.648 13.8722C212.234 14.7131 211.592 15.3835 210.722 15.8835C209.853 16.3778 208.739 16.625 207.381 16.625H203.154V14.75H207.313C208.251 14.75 209.004 14.5881 209.572 14.2642C210.14 13.9403 210.552 13.5028 210.808 12.9517C211.069 12.3949 211.2 11.767 211.2 11.0682C211.2 10.3693 211.069 9.74432 210.808 9.19318C210.552 8.64205 210.137 8.21023 209.563 7.89773C208.989 7.57955 208.228 7.42045 207.279 7.42045H203.563V23H201.45ZM216.411 23V9.90909H218.354V11.8864H218.491C218.729 11.2386 219.161 10.7131 219.786 10.3097C220.411 9.90625 221.116 9.70454 221.9 9.70454C222.048 9.70454 222.232 9.70739 222.454 9.71307C222.675 9.71875 222.843 9.72727 222.957 9.73864V11.7841C222.888 11.767 222.732 11.7415 222.488 11.7074C222.249 11.6676 221.996 11.6477 221.729 11.6477C221.093 11.6477 220.525 11.7812 220.025 12.0483C219.531 12.3097 219.138 12.6733 218.849 13.1392C218.565 13.5994 218.423 14.125 218.423 14.7159V23H216.411ZM230.431 23.2727C229.17 23.2727 228.082 22.9943 227.167 22.4375C226.258 21.875 225.556 21.0909 225.062 20.0852C224.573 19.0739 224.329 17.8977 224.329 16.5568C224.329 15.2159 224.573 14.0341 225.062 13.0114C225.556 11.983 226.244 11.1818 227.124 10.608C228.011 10.0284 229.045 9.73864 230.227 9.73864C230.908 9.73864 231.582 9.85227 232.246 10.0795C232.911 10.3068 233.516 10.6761 234.062 11.1875C234.607 11.6932 235.042 12.3636 235.366 13.1989C235.69 14.0341 235.852 15.0625 235.852 16.2841V17.1364H225.761V15.3977H233.806C233.806 14.6591 233.658 14 233.363 13.4205C233.073 12.8409 232.658 12.3835 232.119 12.0483C231.585 11.7131 230.954 11.5455 230.227 11.5455C229.425 11.5455 228.732 11.7443 228.147 12.142C227.567 12.5341 227.121 13.0455 226.809 13.6761C226.496 14.3068 226.34 14.983 226.34 15.7045V16.8636C226.34 17.8523 226.511 18.6903 226.852 19.3778C227.198 20.0597 227.678 20.5795 228.292 20.9375C228.906 21.2898 229.619 21.4659 230.431 21.4659C230.96 21.4659 231.437 21.392 231.863 21.2443C232.295 21.0909 232.667 20.8636 232.979 20.5625C233.292 20.2557 233.533 19.875 233.704 19.4205L235.647 19.9659C235.442 20.625 235.099 21.2045 234.616 21.7045C234.133 22.1989 233.536 22.5852 232.826 22.8636C232.116 23.1364 231.317 23.2727 230.431 23.2727ZM238.911 27.9091V9.90909H240.854V11.9886H241.093C241.241 11.7614 241.445 11.4716 241.707 11.1193C241.974 10.7614 242.354 10.4432 242.849 10.1648C243.349 9.88068 244.025 9.73864 244.877 9.73864C245.979 9.73864 246.951 10.0142 247.792 10.5653C248.633 11.1165 249.289 11.8977 249.761 12.9091C250.232 13.9205 250.468 15.1136 250.468 16.4886C250.468 17.875 250.232 19.0767 249.761 20.0938C249.289 21.1051 248.636 21.8892 247.8 22.446C246.965 22.9972 246.002 23.2727 244.911 23.2727C244.07 23.2727 243.397 23.1335 242.891 22.8551C242.386 22.571 241.996 22.25 241.724 21.892C241.451 21.5284 241.241 21.2273 241.093 20.9886H240.923V27.9091H238.911ZM240.888 16.4545C240.888 17.4432 241.033 18.3153 241.323 19.071C241.613 19.821 242.036 20.4091 242.593 20.8352C243.15 21.2557 243.832 21.4659 244.638 21.4659C245.479 21.4659 246.181 21.2443 246.744 20.8011C247.312 20.3523 247.738 19.75 248.022 18.9943C248.312 18.233 248.457 17.3864 248.457 16.4545C248.457 15.5341 248.315 14.7045 248.031 13.9659C247.752 13.2216 247.329 12.6335 246.761 12.2017C246.198 11.7642 245.491 11.5455 244.638 11.5455C243.82 11.5455 243.133 11.7528 242.576 12.1676C242.019 12.5767 241.599 13.1506 241.315 13.8892C241.031 14.6222 240.888 15.4773 240.888 16.4545Z" fill="#1B1B32"/>
</svg>
